/* XPM */
static char *_____________[] = {
/* columns rows colors chars-per-pixel */
"73 75 38 1",
"  c #FF00FF",
". c #00FFFF",
"X c #301830",
"o c #685028",
"O c #786818",
"+ c #8090A0",
"@ c #606878",
"# c #907030",
"$ c #687888",
"% c #B09030",
"& c #304050",
"* c #A0B0B0",
"= c #485060",
"- c #C8B840",
"; c #484020",
": c #A8D0B0",
"> c #D0E850",
", c #E8F890",
"< c #882010",
"1 c #B04818",
"2 c #D05820",
"3 c #E88820",
"4 c #101010",
"5 c #D8E8C0",
"6 c #111111",
"7 c #4C5C50",
"8 c #A0CCB0",
"9 c #80A090",
"0 c #607C7C",
"q c #C03000",
"w c #9C2000",
"e c #701000",
"r c #9CC05C",
"t c #F04C0C",
"y c #E4FFEC",
"u c #C0EC8C",
"i c #2C3C30",
"p c #FFA05C",
/* pixels */
"                                                                         ",
"                                                                         ",
"                                                                         ",
"                                                                         ",
"                                                                         ",
"                                X                                        ",
"       XXXXXX                   XX                                       ",
"    XXX#%--#oXXX                X<X                                      ",
"   Xo#%---%o%--#XX              X<<X                                     ",
"  Xo#%----o#----%#X              X<<X     X                              ",
"  Xo#%---%;%---%oooX        XXXX X<1<X   XX                              ",
"  Xo##%%%#;%%%#o%--%X        X<<X X11<X X<X                              ",
"  X;ooooooXoo#o-----#X        X<<XX12<X X<X                              ",
"   XXXXXXXXXo;o%%---%X     XXXX<1<X121<X<<X                              ",
"            XX;o%%#oooX     X<<X11<<22<X<1X                              ",
"              X;o;o#%%X    X<X1<111<23<<11X                              ",
"               X;o#%--oX   X<X11<21<23<121X                              ",
"                Xo#%--#X  XXX;;<<221231221XXXX                           ",
"                Xo#%%%#X  XXo###o;1<21223<<oo;XXXXX                      ",
"                X;;ooo;XXXo#%%%%%#o<222331<###oooooXX                    ",
"               X;o#%%#oXo#%-->>%%%o<123332<%%%o#####oX                   ",
"               Xo####oXo#--->>-->>-o123332<%%%#%%%%##oX                  ",
"              X;oo##oXo#---->-->>>-o133-31o-#%#%---%#o;XXX               ",
"             X;;;;XXXoo%----%#--#;;;13--2<o##o#%---%%#oO#oX              ",
"             X;o;Xo##Oo%%--%O#%#;%%#X2-32o;;;o;##%%###oOO#oX             ",
"            X;ooXo%--OO#####oO#;##o%Xo331X#%%;;#%--%ooO#O%#X             ",
"            X;o;X%->-%OOOOOo;OOXooo;#;22oX%##%;#%%%%#;OOo%#oX            ",
"            X;;Xo%->>,%>>>-%#o;oXo;;#;1<X#O;o%;o#%%#oXoo;%%#X            ",
"            XooXo%%>>>,,,,>-#;;X;$#%%#<%%%o;#oX;ooooX;;X;%%OX            ",
"            X;oXo#%>>-,,,,>-#;X;$+%%oo;o#%%#oX;;;XXX;;X;o%%oX            ",
"            X;;Xo#%--%>>>>>%#;$+*;o#-;%---##$;;XX;XXXX;;#%#oX            ",
"             X;X;O%%%#%%%%##oXX=;o+o-#--o;#O+=;X X;oOO;o##ooX            ",
"             X;;XO#%#######o;;=$;o;o>>>#*o#o:*$=X X;OOo###ooX            ",
"              X;X;######OOo;;XX==o#%,,>o;o#o*$XX   Xooo##Oo;X            ",
"               XX;O###Oooo;XX;@+*oo#%%##%%#++&X    X;;o##oo;X            ",
"               XoOo#ooO#%%#XXXXXXoo;XXo#oo@*:$=&    X;;OO;oX             ",
"               XO##OO%#%--%oX&&&X;o;X;o#=@+&XX      X;oOo;oX             ",
"               XO##O%-#%--%oX&&&&X;o;ooX@&XX        XoO##O;X             ",
"               Xo##o%%O%%%#oX===&X=&XXX&+X        XXo####O;X             ",
"               XXooO##OOOOOoX====&X@+*++X;XX     XO#######OX             ",
"               X;o#o##oOOOoX==@@@&&XXXXXooooX   XoO########X             ",
"              X;oO##oOooooX&===@@&=@@@$$@ooooXX XoOOXXX;O##oX            ",
"             XoOOO->##O;;;X=X&===&&==@@$$@ooO#oXX;ooX;;;;O#OX            ",
"             X%%#%>>-#%%%oXX=X&&&=@@@===@$=O##OXX;*;X;;;;o##OXX          ",
"             X###->>>-%->>-#X=X&&==@@@@@=@=OOOOX X$X;;;;;XoOO##X         ",
"             Xo#o->>>>-%->-%oXXXXX&&=======oOO;X  XX;;;X;;XXo##X         ",
"              Xo;#-->>>----%#XX   XXXX&&&&;;;XX   X;;;X X;;;XOOX         ",
"              X;;o%--->>-%%##;X  X;;;;;XXXXXX   X===;X  X;;XXooX         ",
"               X;oo##%%---%%#oX  X;;;;;X         XXXX  X;;X Xoo$X        ",
"                X;oo###%%---#oX444X;;;;;XXXX           X;;X  XX*X        ",
"                 X;ooo###%--%o;X444X;;;;;&&&XXXX444  X=$$X    =$X        ",
"                  XX;ooo###--#oX444X;&&&&===&&&&X4444 XXX    =XX         ",
"                   XXX;oo##%%%#oX444X=@=&X=@@X===44444                   ",
"                  X;;XX;;;#%->>#oXXXX&@$$=X$$=X=$X44444                  ",
"               444X;&;;X;;;%->>--##oXXXXX@&@=*XX@X44444                  ",
"             444XX&==&&&X;o#----%%#%%####X&XX$X4X444444                  ",
"            444X&=====&&Xoo#%%#####OO####oX4X4444444444                  ",
"            44X=@@=&@@=&Xo##########o;;oOOoX4444444444                   ",
"           44X@$$@&$$@=&Xo###########oX;ooo;X4444444                     ",
"           44X@=@@&++@&&X#######oo#---XXXXo&*X4444                       ",
"           44X=*=X=$$=&Xo%%o#%%#ooo%--%oX4X&$X44                         ",
"           444X+XX=$@&XO--#o#--%XXX#%--#X44X&X4                          ",
"           444X=XX&:=X#--%#X#---X44Xo%%#oX44X4                           ",
".           444X44X*XX#%%oXXO---X444XOOOOX444                            ",
"             444444X4XOOOXX4X%%%X444X;OOOX444                            ",
"              4444444XOO=X44XOOOoX444X;O$X444                            ",
"                444444X=$&X4XOOOOX4444X$:X44                             ",
"                  44444X==X4XooooX4444X=$X44                             ",
"                    44444X44X;::;X4444X=X44                              ",
"                      4444444X$*X444444X44                               ",
"                        444444X$X4444444                                 ",
"                           4444X44444                                    ",
"                                                                         ",
"                                                                         ",
"                                                                         "
};
